<?xml version="1.0" encoding="utf-8"?>
<!-- Svg Vector Icons : http://www.onlinewebfonts.com/icon -->
<!DOCTYPE svg PUBLIC "-//W3C//DTD SVG 1.1//EN" "http://www.w3.org/Graphics/SVG/1.1/DTD/svg11.dtd">
<svg version="1.1" xmlns="http://www.w3.org/2000/svg" xmlns:xlink="http://www.w3.org/1999/xlink" x="0px" y="0px" viewBox="0 0 1000 1000" enable-background="new 0 0 1000 1000" xml:space="preserve">
<g><path fill="#fcd635" d="M500,10C229.3,10,10,229.3,10,500s219.3,490,490,490s490-219.3,490-490S770.7,10,500,10z M549,843h-98v-98h98V843z M650.2,463.5l-43.9,45.1C571,543.9,549,573.5,549,647h-98v-24.5c0-54.1,22.1-103.1,57.3-138.7l61-61.7C587,404.4,598,379.9,598,353c0-54.1-43.9-98-98-98c-54.1,0-98,43.9-98,98h-98c0-108.3,87.7-196,196-196c108.3,0,196,87.7,196,196C696,396.1,678.6,435.1,650.2,463.5z"/></g>
</svg>