<?xml version="1.0" standalone="no"?>
<!DOCTYPE svg PUBLIC "-//W3C//DTD SVG 20010904//EN"
 "http://www.w3.org/TR/2001/REC-SVG-20010904/DTD/svg10.dtd">
<svg version="1.0" xmlns="http://www.w3.org/2000/svg"
 width="200.000000pt" height="200.000000pt" viewBox="0 0 200.000000 200.000000"
 preserveAspectRatio="xMidYMid meet">

<g transform="translate(0.000000,200.000000) scale(0.100000,-0.100000)"
fill="#000000" stroke="none">
<path fill="#fcd635" d="M791 1933 c-16 -20 -33 -53 -36 -74 -4 -22 -11 -41 -16 -45 -5 -3 -9
-22 -10 -42 0 -20 -9 -50 -20 -67 -10 -16 -21 -37 -25 -45 -3 -8 -10 -23 -15
-32 -5 -10 -9 -38 -9 -63 0 -25 -7 -56 -16 -70 -8 -13 -17 -43 -19 -67 -4 -66
-25 -134 -46 -157 -21 -22 -39 -27 -39 -11 0 14 -50 -7 -77 -32 -13 -12 -23
-32 -23 -44 0 -13 -5 -35 -11 -51 -7 -15 -13 -37 -14 -47 -4 -36 -65 -73 -112
-67 -7 1 -19 -12 -28 -29 -8 -16 -26 -32 -40 -36 -13 -3 -27 -15 -30 -25 -4
-10 -13 -19 -21 -19 -16 0 -19 -31 -4 -46 13 -13 -39 -85 -75 -104 -14 -7 -28
-25 -32 -39 -3 -14 -14 -39 -24 -56 -10 -16 -21 -53 -25 -82 -5 -42 -2 -60 15
-96 15 -30 20 -54 15 -71 -3 -14 -3 -38 0 -52 6 -22 11 -25 32 -20 14 4 35 4
45 1 19 -6 19 -8 -5 -32 -15 -14 -26 -32 -26 -40 0 -19 49 -35 87 -28 27 5 36
1 55 -20 12 -14 27 -25 33 -25 6 0 45 -18 88 -40 42 -22 83 -40 92 -40 28 0
139 -51 166 -76 32 -30 47 -31 43 -2 -5 27 24 64 60 78 19 7 26 17 26 35 0 14
4 25 8 25 4 0 16 13 25 30 12 20 28 31 52 36 20 3 37 10 40 14 2 4 16 5 31 2
31 -6 104 17 104 32 0 6 9 0 20 -14 l20 -25 30 33 c16 17 36 32 43 32 7 0 22
7 33 15 12 8 24 12 28 8 3 -3 46 -7 95 -8 56 -1 96 -7 106 -15 8 -7 15 -9 15
-6 0 4 10 2 21 -5 26 -13 81 12 105 49 8 12 20 22 27 22 6 0 23 9 36 19 21 16
23 22 13 48 -8 23 -6 37 6 63 15 30 14 33 -2 46 -10 7 -24 10 -31 8 -7 -3 -16
4 -20 15 -6 20 -3 25 67 97 29 31 29 33 17 75 -7 25 -26 55 -42 70 -27 23 -29
27 -17 50 8 13 17 41 20 62 l7 37 -127 0 -127 0 -1 32 c0 18 2 37 6 42 3 6 7
18 7 26 5 53 -2 50 109 50 131 0 141 -9 120 -109 -8 -38 -13 -37 91 -9 57 16
65 32 41 80 -19 37 -21 65 -4 70 8 3 9 11 3 24 -14 29 -12 73 2 78 7 3 25 1
40 -5 42 -16 55 -5 49 41 -3 22 -1 42 4 45 13 8 49 -17 56 -37 3 -12 16 -18
35 -18 35 0 49 27 49 95 0 24 5 45 12 47 17 6 -2 34 -42 61 -32 22 -34 28 -36
85 -2 34 2 64 7 67 5 4 6 18 3 32 -5 20 -1 30 22 50 23 19 25 24 9 20 -11 -3
-27 -8 -36 -11 -13 -6 -18 0 -21 27 -5 43 0 57 17 57 8 0 17 4 20 10 4 6 -6 7
-25 4 -23 -5 -30 -3 -30 10 0 9 -4 16 -10 16 -5 0 -10 -7 -10 -15 0 -11 -12
-15 -46 -15 -33 0 -54 -7 -78 -25 -18 -14 -36 -25 -39 -25 -3 0 -18 -5 -34
-12 -45 -19 -69 -18 -92 3 -26 24 -43 16 -35 -17 3 -13 3 -31 0 -40 -6 -15 -8
-15 -27 2 -23 21 -89 46 -89 33 0 -5 -4 -9 -10 -9 -5 0 -10 9 -10 20 0 24 -8
25 -34 5 -25 -19 -46 -19 -46 0 0 22 -15 18 -28 -7 -11 -22 -11 -21 -6 5 5 23
-1 35 -36 70 -38 39 -42 41 -54 24 -15 -19 -46 -13 -46 9 0 11 -4 12 -19 2
-22 -13 -51 -70 -51 -98 0 -11 -2 -20 -4 -20 -3 0 -33 17 -68 37 -35 21 -85
45 -113 54 -66 23 -74 37 -53 94 21 54 10 58 -31 8z"/>
</g>
</svg>
