<?xml version="1.0" encoding="utf-8"?>
<!-- Svg Vector Icons : http://www.onlinewebfonts.com/icon -->
<!DOCTYPE svg PUBLIC "-//W3C//DTD SVG 1.1//EN" "http://www.w3.org/Graphics/SVG/1.1/DTD/svg11.dtd">
<svg version="1.1" xmlns="http://www.w3.org/2000/svg" xmlns:xlink="http://www.w3.org/1999/xlink" x="0px" y="0px" viewBox="0 0 1000 1000" enable-background="new 0 0 1000 1000" xml:space="preserve">
<metadata> Svg Vector Icons : http://www.onlinewebfonts.com/icon </metadata>
<g><g transform="translate(0.000000,467.000000) scale(0.100000,-0.100000)"><path fill="#fcd635" d="M2033,4110.4c-36.4-17.3-86.2-61.3-109.2-97.7l-44.1-65.2V2705.7V1461.9h-657.3c-551.9,0-672.7-5.7-747.4-30.7c-122.7-42.2-266.4-174.4-322-299l-46-101.6l-5.7-2041C97.3-2403.6,103.1-3082,116.5-3151c32.6-157.1,139.9-289.4,295.1-369.9l132.2-67.1l666.9-5.7l668.8-7.7v-502.1c0-492.5,1.9-505.9,44.1-569.2c23-36.4,72.8-80.5,109.2-97.7c63.2-32.6,245.3-34.5,2970.5-34.5c2725.2,0,2907.3,1.9,2970.5,34.5c36.4,17.2,86.2,61.3,109.2,97.7c42.2,63.2,44.1,76.7,44.1,569.2v502.1l666.9,7.7l665,5.7l107.3,49.8c130.3,61.3,224.2,153.3,287.5,277.9l46,93.9v2098.5v2098.5l-46,101.6c-55.6,124.6-199.3,256.8-322,299c-74.7,24.9-195.5,30.7-747.4,30.7h-657.3v1243.8v1241.9l-44.1,65.2c-23,36.4-72.8,80.5-109.2,97.7c-63.2,32.6-245.3,34.5-2970.5,34.5C2278.3,4144.9,2096.2,4143,2033,4110.4z M7571.5,2238V886.9H5003.5H2435.4V2238v1351.1h2568.1h2568.1V2238z M8455-253.3c249.1-130.3,243.4-490.6-9.6-605.6c-103.5-46-191.7-46-295.1,3.8c-203.2,99.6-249.1,358.4-93.9,527C8163.7-213.1,8318.9-184.4,8455-253.3z M8656.2-2014.6c55.6-55.6,65.2-78.6,65.2-155.2s-9.6-99.7-65.2-155.2l-65.2-65.2h-509.8h-509.8v-929.5v-929.5H5003.5H2435.4v929.5v929.5h-509.8h-509.8l-65.2,65.2c-55.6,55.6-65.2,78.6-65.2,155.2s9.6,99.7,65.2,155.2l65.2,65.2h3587.6h3587.6L8656.2-2014.6z"/><path fill="#fcd635" d="M3008.4-2675.8c-30.7-30.6-55.6-74.7-55.6-97.7c0-55.6,49.8-145.6,86.2-161c17.2-5.8,904.6-11.5,1970.1-11.5c2052.5,1.9,1973.9-1.9,2021.9,90.1c36.4,67.1,26.8,120.7-32.6,180.1l-55.6,55.6H5003.5H3064L3008.4-2675.8z"/><path fill="#fcd635" d="M3008.4-3480.7c-76.7-76.7-69-178.2,19.2-245.3c44.1-34.5,3907.7-34.5,3951.7,0c88.2,67.1,95.8,168.7,19.2,245.3l-55.6,55.6H5003.5H3064L3008.4-3480.7z"/></g></g>
</svg>
