<svg height="512pt" viewBox="-56 0 512 512.00123" width="512pt" xmlns="http://www.w3.org/2000/svg"><path style="fill:#fcd635;" d="m196.667969 289.390625v-88.070313h23.042969c8.472656 0 15.339843-6.867187 15.339843-15.339843 0-8.472657-6.867187-15.34375-15.339843-15.34375h-23.042969v-96.851563c0-37.875-29.804688-72.417968-74.15625-72.417968-39.929688 0-72.417969 32.488281-72.417969 72.417968v215.601563c-32.089844 23.644531-50.667969 60.824219-50.078125 101.070312.972656 66.972657 55.917969 121.542969 123.382813 121.542969 67.683593 0 123.359374-54.691406 123.359374-123.378906 0-39.492188-18.574218-75.984375-50.089843-99.230469zm-30.683594-56.535156h-27.261719v-31.535157h27.261719zm-42.605469 122.96875c18.085938 0 32.800782 14.710937 32.800782 32.796875 0 18.085937-14.714844 32.800781-32.800782 32.800781-18.082031 0-32.796875-14.714844-32.796875-32.800781 0-18.085938 14.714844-32.796875 32.796875-32.796875zm-1.328125 125.484375c-49.652343-.695313-90.632812-41.652344-91.355469-91.296875-.472656-32.40625 15.59375-62.167969 42.984376-79.613281 4.417968-2.816407 7.097656-7.695313 7.097656-12.941407v-223.671875c0-21.355468 16.457031-41.734375 43.472656-41.734375 23.011719 0 41.734375 18.722657 41.734375 41.734375v96.851563h-27.261719v-93.632813c0-8.472656-6.871094-15.34375-15.34375-15.34375s-15.339844 6.871094-15.339844 15.34375v250.023438c-27.613281 6.878906-48.140624 31.878906-48.140624 61.59375 0 35.003906 28.480468 63.484375 63.480468 63.484375 35.007813 0 63.484375-28.480469 63.484375-63.484375 0-29.714844-20.527343-54.714844-48.140625-61.59375v-63.488282h27.261719v33.921876c0 5.242187 2.675781 10.121093 7.097656 12.9375 26.921875 17.148437 42.992188 46.390624 42.992188 78.222656 0 51.746094-42.257813 93.433594-94.023438 92.6875zm0 0"/><path style="fill:#fcd635;" d="m377.601562 63.867188c-4.207031-7.15625-13.34375-9.667969-20.617187-5.667969-7.308594 4.023437-14.214844 7.605469-20.054687 10.546875-2.660157-14.355469-5.96875-34.875-7.410157-54.523438-1.023437-13.957031-18.796875-19.378906-27.414062-8.292968-28.09375 36.136718-61.585938 85.601562-61.585938 116.019531 0 43.765625 35.605469 79.371093 79.371094 79.371093s79.371094-35.605468 79.371094-79.371093c-.003907-14.300781-7.085938-33.300781-21.660157-58.082031zm-57.710937 106.769531c-26.847656 0-48.6875-21.839844-48.6875-48.683594 0-11.972656 12.171875-36.425781 32.382813-66.074219 3.34375 21.390625 7.015624 37.644532 7.257812 38.691406 2.152344 9.457032 12.457031 14.566407 21.285156 10.566407.574219-.261719 11.339844-5.152344 26.140625-12.839844 9.15625 17.839844 10.304688 26.460937 10.304688 29.652344 0 26.847656-21.835938 48.6875-48.683594 48.6875zm0 0"/></svg>
