<?xml version="1.0" encoding="iso-8859-1"?>
<svg version="1.1" id="Capa_1" xmlns="http://www.w3.org/2000/svg" xmlns:xlink="http://www.w3.org/1999/xlink" x="0px" y="0px"
	 viewBox="0 0 512 512" style="enable-background:new 0 0 512 512;" xml:space="preserve">
<path style="fill:#fcd635;" d="M438.799,192.43c48.98,83.19,35.46,189.07-32.89,257.45c-4.408,4.41-8.976,8.602-13.69,12.57h-242.44
	L255.999,0l59.38,59.4l33.89-19.89L438.799,192.43z"/>
<path style="fill:#fcd635;" d="M255.999,0v462.453H119.782c-4.716-3.969-9.284-8.162-13.693-12.573
	c-68.35-68.37-81.87-174.25-32.88-257.48l89.52-152.89l33.89,19.89L255.999,0z"/>
<path style="fill:#D14626;" d="M387.099,222.87c35.1,59.63,25.4,135.55-23.63,184.59c-28.7,28.72-66.87,44.54-107.47,44.54l-90-196
	l90-171.13l49.73,49.75l22.11-12.97L387.099,222.87z"/>
<path style="fill:#D14626" d="M255.999,84.87V452c-40.6,0-78.77-15.82-107.47-44.54c-49.03-49.04-58.73-124.96-23.61-184.62
	l59.24-101.19l22.11,12.97L255.999,84.87z"/>
<rect x="241" y="327" style="fill:#fcd635;" width="30" height="120"/>
<path style="fill:#fcd635;" d="M392.219,462.45c-38.11,32.08-85.82,49.55-136.22,49.55l-40-47l40-48
	C307.119,417,354.289,433.92,392.219,462.45z"/>
<path style="fill:#fcd635;" d="M255.999,417v95c-50.4,0-98.11-17.47-136.22-49.55C157.709,433.92,204.879,417,255.999,417z"/>
<polygon style="fill:#fcd635;" points="255.999,141.1 357.999,315.1 324.639,315.1 357.999,372 255.999,372 207.349,295.1 "/>
<polygon style="fill:#fcd635;" points="255.999,141.1 255.999,372 153.999,372 187.349,315.1 153.999,315.1 "/>
</svg>
