<?xml version="1.0" encoding="utf-8"?>
<svg version="1.1" id="Layer_1" xmlns="http://www.w3.org/2000/svg" xmlns:xlink="http://www.w3.org/1999/xlink" x="0px" y="0px"
	 viewBox="25 30 40 30" style="enable-background:new 0 0 90 90;" xml:space="preserve">
<style type="text/css">
	.st0{fill:#fcd635;}
</style>
<path class="st0" d="M43.6,51.8c-1.5,0-2.8,1.2-2.8,2.8c0,1.5,1.2,2.8,2.8,2.8c1.5,0,2.8-1.2,2.8-2.8C46.3,53,45.1,51.8,43.6,51.8
	 M43.6,58.7c-2.3,0-4.1-1.9-4.1-4.1c0-2.3,1.9-4.1,4.1-4.1c2.3,0,4.1,1.9,4.1,4.1C47.7,56.8,45.8,58.7,43.6,58.7"/>
<path class="st0" d="M43.6,51.1c-0.4,0-0.7-0.3-0.7-0.7v-8.3c0-0.4,0.3-0.7,0.7-0.7c0.4,0,0.7,0.3,0.7,0.7v8.3
	C44.3,50.7,43.9,51.1,43.6,51.1"/>
<path class="st0" d="M43.6,30.6c-1.1,0-2.1,0.9-2.1,2.1V49c0,0.3-0.1,0.5-0.4,0.6c-1.9,0.9-3.1,2.8-3.1,4.9c0,3,2.5,5.5,5.5,5.5
	c3,0,5.5-2.5,5.5-5.5c0-2.1-1.2-4-3.1-4.9c-0.2-0.1-0.4-0.4-0.4-0.6V32.7C45.6,31.5,44.7,30.6,43.6,30.6 M43.6,61.5
	c-3.8,0-6.9-3.1-6.9-6.9c0-2.5,1.3-4.7,3.5-6V32.7c0-1.9,1.6-3.5,3.5-3.5c1.9,0,3.5,1.5,3.5,3.5v15.9c2.1,1.2,3.5,3.5,3.5,6
	C50.5,58.4,47.4,61.5,43.6,61.5"/>
<path class="st0" d="M52.1,34c-0.4,0-0.7,0.3-0.7,0.7c0,0.4,0.3,0.7,0.7,0.7c0.4,0,0.7-0.3,0.7-0.7C52.8,34.3,52.5,34,52.1,34
	 M52.1,36.7c-1.1,0-2.1-0.9-2.1-2.1c0-1.1,0.9-2.1,2.1-2.1c1.1,0,2.1,0.9,2.1,2.1C54.2,35.8,53.3,36.7,52.1,36.7"/>
<path class="st0" d="M59,47.8c-3.4,0-6.2-2.8-6.2-6.2c0-3.4,2.8-6.2,6.2-6.2c1.6,0,3.2,0.6,4.4,1.8c0.3,0.3,0.3,0.7,0,1
	c-0.3,0.3-0.7,0.3-1,0c-0.9-0.9-2.1-1.4-3.4-1.4c-2.7,0-4.8,2.2-4.8,4.8c0,2.7,2.2,4.8,4.8,4.8c1.3,0,2.5-0.5,3.4-1.4
	c0.3-0.3,0.7-0.3,1,0c0.3,0.3,0.3,0.7,0,1C62.2,47.1,60.7,47.8,59,47.8L59,47.8z"/>
<polygon class="st0" points="29.9,30.1 32.5,25.7 35.2,30.1 "/>
<path class="st0" d="M32.5,34.3V34c1.3,0,2.3-1,2.3-2.3h0.3C35.1,33.1,34,34.3,32.5,34.3 M35.2,30.2c-0.5-0.9-1.5-1.5-2.6-1.5
	c-1.1,0-2.1,0.6-2.6,1.5c-0.3,0.5-0.4,1-0.4,1.6c0,1.7,1.4,3.1,3.1,3.1c1.7,0,3.1-1.4,3.1-3.1C35.6,31.2,35.5,30.6,35.2,30.2"/>
</svg>
