<svg id="eq20bf26eswj1" xmlns="http://www.w3.org/2000/svg" xmlns:xlink="http://www.w3.org/1999/xlink" viewBox="0 0 1190.500000 841.900000" shape-rendering="geometricPrecision" text-rendering="geometricPrecision"><defs><clipPath id="eq20bf26eswj2"><use id="eq20bf26eswj3" width="210.199982" height="70.699982" xlink:href="#null"/></clipPath></defs><g id="eq20bf26eswj4"><g id="eq20bf26eswj5" opacity="0"><path id="eq20bf26eswj6" d="M565.900000,337.100000C565.900000,304.900000,590.100000,279.500000,623.900000,279.500000C648.100000,279.500000,668.900000,294.200000,676.100000,315.600000C676.800000,318.100000,675.500000,319.600000,673.100000,319.600000L661,319.600000C659,319.600000,657.700000,318.600000,656.900000,316.800000C651.400000,304.900000,638.700000,297.200000,624,297.200000C600.100000,297.200000,584.200000,314.200000,584.200000,337.100000C584.200000,360,600.100000,377,624,377C638.700000,377,651.400000,369.300000,656.900000,357.400000C657.800000,355.600000,659,354.600000,661,354.600000L673.100000,354.600000C675.600000,354.600000,676.900000,356.100000,676.200000,358.300000C669.200000,379.800000,648.300000,394.700000,624,394.700000C590.100000,394.800000,565.900000,369.300000,565.900000,337.100000Z" fill="rgb(173,25,14)" stroke="none" stroke-width="1"/><path id="eq20bf26eswj7" d="M685.900000,337.100000C685.900000,304.900000,711.400000,279.500000,743.500000,279.500000C775.700000,279.500000,801.100000,304.900000,801.100000,337.100000C801.100000,369.300000,775.600000,394.700000,743.500000,394.700000C711.400000,394.800000,685.900000,369.300000,685.900000,337.100000ZM782.900000,337.100000C782.900000,314.200000,765.800000,297.200000,743.500000,297.200000C721.300000,297.200000,704.100000,314.200000,704.100000,337.100000C704.100000,360,721.200000,377,743.500000,377C765.800000,377,782.900000,360,782.900000,337.100000Z" fill="rgb(173,25,14)" stroke="none" stroke-width="1"/><path id="eq20bf26eswj8" d="M839.600000,389.800000L804.100000,285.600000C803.300000,283.100000,804.600000,281.500000,807.100000,281.500000L819.400000,281.500000C821.400000,281.500000,822.800000,282.400000,823.400000,284.400000L851.400000,371L879.400000,284.400000C880,282.300000,881.500000,281.500000,883.400000,281.500000L895.700000,281.500000C898.200000,281.500000,899.500000,283.100000,898.700000,285.600000L863.200000,389.800000C862.600000,391.700000,861.100000,392.700000,859.200000,392.700000L843.500000,392.700000C841.700000,392.700000,840.200000,391.700000,839.600000,389.800000Z" fill="rgb(173,25,14)" stroke="none" stroke-width="1"/><path id="eq20bf26eswj9" d="M915.700000,281.500000L926.800000,281.500000C929.100000,281.500000,930.400000,282.800000,930.400000,285.100000L930.400000,389.100000C930.400000,391.400000,929.100000,392.700000,926.800000,392.700000L915.700000,392.700000C913.400000,392.700000,912.100000,391.400000,912.100000,389.100000L912.100000,285.100000C912.200000,282.800000,913.400000,281.500000,915.700000,281.500000Z" fill="rgb(173,25,14)" stroke="none" stroke-width="1"/><path id="eq20bf26eswj10" d="M1052.700000,337.100000C1052.700000,368.100000,1030.200000,392.700000,999.500000,392.700000L959,392.700000L956.200000,392.700000C953.900000,392.700000,952.600000,391.400000,952.600000,389.100000L952.600000,285.100000C952.600000,282.800000,953.900000,281.500000,956.200000,281.500000L970.900000,281.500000L999.500000,281.500000C1030.100000,281.500000,1052.700000,306.100000,1052.700000,337.100000ZM1035,337.100000C1035,315.100000,1020.600000,299,999.400000,299L970.800000,299L970.800000,375.200000L999.400000,375.200000C1020.600000,375.200000,1035,359.100000,1035,337.100000Z" fill="rgb(173,25,14)" stroke="none" stroke-width="1"/><path id="eq20bf26eswj11" d="M675.600000,482.800000C678.600000,482.800000,680.400000,484.600000,680.400000,487.600000L680.400000,508.400000L680.400000,540C680.400000,543,678.600000,544.800000,675.600000,544.800000L658,544.800000C655,544.800000,653.200000,543,653.200000,540L653.200000,536C645.900000,543.400000,635.300000,547.400000,621.200000,547.400000C588.900000,547.400000,565.900000,522,565.900000,488.900000C565.900000,455.800000,590.500000,430.400000,624.400000,430.400000C650,430.400000,671.100000,446.100000,678.300000,466.900000C679.400000,470.300000,677.700000,472.300000,674.300000,472.300000L650,472.300000C647.400000,472.300000,645.800000,471.300000,644.100000,469.400000C639.800000,464.800000,633.200000,461.700000,624.700000,461.700000C608.500000,461.700000,597.800000,473.400000,597.800000,488.900000C597.800000,506,608.500000,517.700000,624.400000,517.700000C634.700000,517.700000,641.500000,514.400000,645.400000,508.400000L630.800000,508.400000C627.800000,508.400000,626,506.600000,626,503.600000L626,487.600000C626,484.600000,627.800000,482.800000,630.800000,482.800000L675.600000,482.800000L675.600000,482.800000Z" fill="rgb(173,25,14)" stroke="none" stroke-width="1"/><path id="eq20bf26eswj12" d="M690.800000,488.900000C690.800000,455.800000,717,430.400000,750.100000,430.400000C783.200000,430.400000,809.400000,455.800000,809.400000,488.900000C809.400000,522,783.200000,547.400000,750.100000,547.400000C717.100000,547.400000,690.800000,522,690.800000,488.900000ZM777.500000,488.900000C777.500000,473.400000,766,461.700000,750.100000,461.700000C734.200000,461.700000,722.700000,473.400000,722.700000,488.900000C722.700000,504.400000,734.200000,516.100000,750.100000,516.100000C766,516.100000,777.500000,504.400000,777.500000,488.900000Z" fill="rgb(173,25,14)" stroke="none" stroke-width="1"/><path id="eq20bf26eswj13" d="M826.300000,432.900000L848.700000,432.900000C851.700000,432.900000,853.500000,434.700000,853.500000,437.700000L853.500000,540C853.500000,543,851.700000,544.800000,848.700000,544.800000L826.300000,544.800000C823.300000,544.800000,821.500000,543,821.500000,540L821.500000,437.700000C821.500000,434.600000,823.300000,432.900000,826.300000,432.900000Z" fill="rgb(173,25,14)" stroke="none" stroke-width="1"/><path id="eq20bf26eswj14" d="M966.900000,539.400000C968,542.600000,966.400000,544.800000,962.900000,544.800000L938.600000,544.800000C935.900000,544.800000,934,543.500000,933.200000,540.600000L930.400000,530.400000L898.200000,530.400000L895.400000,540.600000C894.600000,543.500000,892.700000,544.800000,890,544.800000L865.700000,544.800000C862.200000,544.800000,860.600000,542.600000,861.700000,539.400000L895.100000,436.900000C895.900000,434.200000,897.800000,432.900000,900.500000,432.900000L928,432.900000C930.700000,432.900000,932.600000,434.200000,933.400000,436.900000L966.900000,539.400000L966.900000,539.400000ZM902.900000,419.100000L910.900000,404.200000C912.200000,402,913.900000,400.800000,916.500000,400.800000L938.900000,400.800000C942.900000,400.800000,944.200000,403.500000,941.800000,406.700000L930,422C928.400000,423.900000,926.600000,424.900000,924.100000,424.900000L906.300000,424.900000C902.600000,424.900000,901.200000,422.300000,902.900000,419.100000ZM923.500000,504.900000L914.300000,470.500000L905.100000,504.900000L923.500000,504.900000Z" fill="rgb(173,25,14)" stroke="none" stroke-width="1"/><path id="eq20bf26eswj15" d="M967.200000,513.300000C967,510.100000,969,508.300000,972,508.300000L994.700000,508.300000C997.600000,508.300000,998.700000,509.700000,999.800000,512.600000C1001.400000,516.100000,1005.400000,517.600000,1011.200000,517.600000C1017.300000,517.600000,1020.600000,515,1020.600000,511.200000C1020.600000,506.400000,1012.800000,504.500000,1003.200000,501.800000C988,497.200000,968.200000,487.900000,968.200000,465.500000C968.200000,442.300000,985.800000,430.300000,1008.500000,430.300000C1029.600000,430.300000,1047.400000,440.100000,1049.600000,462.800000C1049.800000,466,1047.800000,467.800000,1044.800000,467.800000L1021.900000,467.800000C1019.200000,467.800000,1018.200000,466.400000,1016.800000,463.800000C1015.500000,461.600000,1013,460.100000,1008.500000,460.100000C1003.100000,460.100000,1000.200000,462.300000,1000.200000,465.700000C1000.200000,471.500000,1009.300000,473.200000,1020,476.400000C1034.900000,480.900000,1052.600000,490.500000,1052.600000,512.200000C1052.600000,535.400000,1034.700000,547.400000,1010.800000,547.400000C987.900000,547.400000,969.500000,537.500000,967.200000,513.300000Z" fill="rgb(173,25,14)" stroke="none" stroke-width="1"/></g><g id="eq20bf26eswj16" transform="matrix(1 0 0 1 -19.40003967000013 -0.35000304999971)"><g id="eq20bf26eswj17" transform="matrix(1 0 0 1 286.30003967499960 0.00000305000032)" opacity="0"><path id="eq20bf26eswj18" d="M0,0L122.800000,0.100000L122.800000,17.400000L0,17.400000L0,0Z" transform="matrix(1 0 0 1 311.19999999999999 411.69999999999999)" fill="rgb(243,231,24)" stroke="none" stroke-width="1"/><path id="eq20bf26eswj19" d="M0,0L122.800000,-0L112.400000,21.600000L0,26.700000L0,0Z" transform="matrix(1 0 0 1 311.19999999999999 429.10000000000002)" fill="rgb(0,153,76)" stroke="none" stroke-width="1"/><path id="eq20bf26eswj20" d="M0,0L103.900000,4L122.800000,26.600000L0,26.700000L0,0Z" transform="matrix(1 0 0 1 311.19999999999999 385.10000000000002)" fill="rgb(0,153,76)" stroke="none" stroke-width="1"/><path id="eq20bf26eswj21" d="M8.077352,8.726558C9.590305,3.237439,87.784687,-1.758485,87.300000,0L87.300000,70.700000C86.679323,71.962487,5.640093,68.179700,7.976927,63.426466C0.352926,64.036739,0.006745,9.543549,8.077352,8.726558Z" transform="matrix(0.99999831467654 -0.00183593139247 0.00183593139247 0.99999831467654 224.60663983531754 384.68828594316199)" fill="rgb(0,37,128)" stroke="none" stroke-width="1"/><polygon id="eq20bf26eswj22" points="297.400000,421.400000 300,429.100000 308,429.100000 301.500000,433.900000 303.900000,441.600000 297.400000,436.900000 290.800000,441.600000 293.300000,433.800000 286.800000,429.100000 294.900000,429.100000" fill="rgb(255,255,255)" stroke="none" stroke-width="1"/><polygon id="eq20bf26eswj23" points="297.400000,397.200000 300,404.800000 308,404.900000 301.500000,409.600000 303.900000,417.300000 297.400000,412.600000 290.800000,417.300000 293.300000,409.600000 286.800000,404.900000 294.900000,404.900000" fill="rgb(255,255,255)" stroke="none" stroke-width="1"/><polygon id="eq20bf26eswj24" points="255.700000,421.400000 258.300000,429.100000 266.300000,429.100000 259.800000,433.900000 262.300000,441.600000 255.700000,436.900000 249.200000,441.600000 251.700000,433.800000 245.100000,429.100000 253.300000,429.100000" fill="rgb(255,255,255)" stroke="none" stroke-width="1"/><polygon id="eq20bf26eswj25" points="276.500000,412.100000 278.500000,417.900000 284.500000,417.900000 279.600000,421.500000 281.500000,427.300000 276.500000,423.700000 271.600000,427.300000 273.500000,421.500000 268.600000,417.900000 274.700000,417.900000" fill="rgb(255,255,255)" stroke="none" stroke-width="1"/><polygon id="eq20bf26eswj26" points="255.700000,397.200000 258.300000,404.800000 266.300000,404.900000 259.800000,409.600000 262.300000,417.300000 255.700000,412.600000 249.200000,417.300000 251.700000,409.600000 245.100000,404.900000 253.300000,404.900000" fill="rgb(255,255,255)" stroke="none" stroke-width="1"/></g><path id="eq20bf26eswj27" d="M334.200000,385.100000L334.200000,278.300000C334.200000,275.400000,331.900000,273.100000,329,273.100000C326.100000,273.100000,323.800000,275.400000,323.800000,278.300000L323.800000,385.100000L334.200000,385.100000Z" transform="matrix(1 0 0 1 286.30003967499960 0.00000305000032)" opacity="0" fill="rgb(253,188,190)" stroke="none" stroke-width="1"/><path id="eq20bf26eswj28" d="M323.800000,455.800000L323.800000,564.100000C323.800000,567,326.100000,569.300000,329,569.300000C331.900000,569.300000,334.200000,567,334.200000,564.100000L334.200000,455.800000L323.800000,455.800000Z" transform="matrix(1 0 0 1 286.30003967499960 0.00000305000032)" opacity="0" fill="rgb(253,188,190)" stroke="none" stroke-width="1"/><path id="eq20bf26eswj29" d="M504.700000,394.300000C498.800000,394.300000,494.300000,397.200000,491.400000,401.700000C489.900000,404.600000,487.100000,407.600000,482.700000,409.100000L474.400000,409.100000C473.500000,397.800000,471.800000,386.900000,468.400000,376.500000C470.800000,376.700000,473.300000,377.700000,475.300000,379.700000C479.700000,382.600000,485.600000,384.500000,490,381.500000C497.300000,378.600000,500.300000,370.900000,497.300000,363.600000L488.600000,341.500000C485.700000,334.100000,478.100000,331.200000,470.700000,334.100000C466.300000,335.600000,463.500000,340.200000,462,346C462,349.300000,461.100000,351.700000,458.800000,353.400000C453.500000,343.200000,446.900000,334,439.500000,325.400000L445.900000,319.400000C450.300000,317.900000,454.900000,317.900000,457.800000,319.400000C463.700000,320.900000,468.100000,319.700000,472.500000,315.300000C478.400000,309.400000,478.400000,300.500000,472.500000,294.600000L454.600000,276.700000C448.700000,270.800000,439.800000,270.800000,434,276.700000C429.600000,281.100000,429.800000,285.500000,431.200000,291.400000C431.200000,294.300000,431.400000,299,428.400000,302L422.400000,308.400000C414.100000,301.400000,405,295.500000,395.300000,290.500000C397.200000,289.100000,399.800000,288.200000,401.700000,287.300000C409,285.800000,413.500000,283,415,278.600000C417.900000,271.200000,415,263.600000,407.700000,260.700000L385.700000,252C378.400000,249.100000,370.800000,252,367.800000,259.400000C366.300000,263.800000,366.700000,269.800000,369.600000,272.700000C371.900000,275,373.100000,278.200000,372.800000,281C362.200000,277.600000,351.300000,275.500000,339.800000,274.600000L340.300000,266.800000C340.300000,262.400000,343.200000,259.500000,347.600000,258.100000C352,255.200000,356.300000,250.700000,356.300000,244.800000C356.300000,236,350.400000,230.100000,341.600000,230.100000L316.400000,230.100000C307.600000,230.100000,301.700000,236,301.700000,244.800000C301.700000,250.700000,304.600000,255.200000,309,258.100000C311.900000,259.600000,314.900000,262.400000,316.300000,266.800000L316.300000,275.100000C305,276,294.200000,277.700000,283.700000,281.100000C283.400000,278.400000,284.600000,275.200000,286.900000,272.800000C289.800000,269.900000,291.700000,263.900000,288.700000,259.500000C285.800000,252.100000,278.200000,249.200000,270.800000,252.100000L248.800000,260.800000C241.500000,263.700000,238.500000,271.400000,241.500000,278.700000C243,283.100000,247.600000,286,253.400000,287.400000C256.700000,287.400000,259.100000,288.300000,260.700000,290.600000C250.600000,295.900000,241.300000,302.500000,232.700000,309.900000L226.700000,303.500000C225.200000,299.100000,225.200000,294.500000,226.700000,291.600000C228.200000,285.700000,227,281.300000,222.600000,276.900000C216.700000,271,207.800000,271,202,276.900000L184.100000,294.800000C178.200000,300.700000,178.200000,309.600000,184.100000,315.500000C188.500000,319.900000,192.900000,319.700000,198.800000,318.300000C201.700000,318.300000,206.400000,318.100000,209.300000,321.100000L215.700000,327.100000C208.800000,335.300000,202.800000,344.200000,197.800000,353.800000C195.500000,351.800000,194.600000,348.700000,194.600000,346.400000C193.100000,340.500000,190.300000,335.900000,185.900000,334.500000C178.600000,331.600000,171,334.500000,168,341.900000L159.300000,364C156.400000,371.400000,159.300000,379,166.600000,381.900000C171,383.400000,177,383,179.900000,380.100000C182.200000,377.800000,185.400000,376.600000,188.200000,376.900000C184.800000,387.500000,182.700000,398.500000,181.800000,410L174,409.500000C169.600000,409.500000,166.800000,406.600000,165.300000,402.100000C162.400000,397.700000,157.900000,393.400000,152,393.400000C143.200000,393.400000,137.300000,399.300000,137.300000,408.100000L137.300000,433.400000C137.300000,442.200000,143.200000,448.100000,152,448.100000C157.900000,448.100000,162.400000,445.200000,165.300000,440.700000C166.800000,437.800000,169.600000,434.800000,174,433.300000L182.300000,433.300000C183.200000,444.600000,184.900000,455.500000,188.300000,465.900000C185.600000,466.200000,182.400000,465,180,462.700000C177.100000,459.800000,171.100000,457.900000,166.700000,460.900000C159.400000,463.800000,156.400000,471.500000,159.400000,478.800000L168.100000,500.900000C171,508.300000,178.600000,511.200000,186,508.300000C190.400000,506.800000,193.200000,502.200000,194.700000,496.400000C194.700000,493.100000,195.600000,490.700000,197.900000,489C203.200000,499.200000,209.800000,508.400000,217.200000,517L210.800000,523C206.400000,524.500000,201.800000,524.500000,198.900000,523C193,521.500000,188.600000,522.700000,184.200000,527.100000C178.300000,533,178.300000,541.900000,184.200000,547.800000L202.100000,565.700000C208,571.600000,216.900000,571.600000,222.700000,565.700000C227.100000,561.300000,226.900000,556.900000,225.500000,551C225.500000,548.100000,225.300000,543.400000,228.300000,540.400000L234.300000,534C242.600000,541,251.700000,546.900000,261.400000,551.900000C259.500000,554.100000,256.100000,555.200000,253.600000,556.500000C247.700000,556.500000,243.100000,559.400000,241.700000,563.900000C238.800000,571.300000,241.700000,578.900000,249,581.800000L271,590.500000C278.300000,593.400000,285.900000,590.500000,288.900000,583.100000C290.400000,578.700000,290,572.700000,287.100000,569.800000C284.800000,567.500000,284.900000,564.700000,284.800000,562C295.100000,565.200000,305.800000,567.100000,316.900000,568L316.400000,575.800000C316.400000,580.200000,313.500000,583.100000,309.100000,584.500000C304.700000,587.400000,300.400000,591.900000,300.400000,597.800000C300.400000,606.600000,306.300000,612.500000,315.100000,612.500000L340.300000,612.500000C349.100000,612.500000,355,606.600000,355,597.800000C355,591.900000,352.100000,587.400000,347.700000,584.500000C344.800000,583,341.800000,580.200000,340.400000,575.800000L340.400000,567.500000C351.100000,566.600000,361.200000,565,371.100000,562C370.800000,564.300000,369.700000,566.600000,367.900000,568.400000C366.400000,572.800000,365,578.700000,367.900000,583.100000C370.800000,590.500000,378.400000,593.400000,385.800000,590.500000L407.800000,581.800000C415.100000,578.900000,418.100000,571.200000,415.100000,563.900000C413.600000,559.500000,409,556.600000,403.200000,555.200000C399.900000,555.200000,397.500000,554.300000,395.900000,552C405.500000,547,414.300000,541,422.500000,534.100000L428.500000,540.500000C431.400000,543.400000,431.300000,548,429.900000,552.400000C428.400000,556.800000,429.600000,561.300000,434,565.700000C439.900000,571.600000,448.800000,571.600000,454.600000,565.700000L472.500000,547.800000C478.400000,541.900000,478.400000,533,472.500000,527.100000C468.100000,522.700000,463.700000,522.900000,457.800000,524.300000C453.400000,525.800000,450.300000,525.900000,445.900000,522.900000L439.500000,516.900000C447,508.200000,453.400000,498.700000,458.800000,488.400000C460.200000,490.300000,461,492.900000,462,494.800000C463.500000,502.200000,466.300000,506.700000,470.700000,508.100000C478,511,485.600000,508.100000,488.600000,500.700000L497.300000,478.600000C500.200000,471.200000,497.300000,463.600000,490,460.700000C485.600000,459.200000,479.600000,459.600000,476.700000,462.500000C474.400000,464.800000,471.600000,464.700000,468.900000,464.800000C472.100000,454.500000,474,443.800000,474.900000,432.600000L482.700000,433.100000C487.100000,433.100000,489.900000,436,491.400000,440.500000C494.300000,444.900000,498.800000,449.200000,504.700000,449.200000C513.500000,449.200000,519.400000,443.300000,519.400000,434.500000L519.400000,409C519.400000,400.200000,513.500000,394.300000,504.700000,394.300000ZM329,564.100000C249.900000,564.100000,185.800000,500,185.800000,420.900000C185.800000,341.800000,249.900000,277.700000,329,277.700000C408.100000,277.700000,472.200000,341.800000,472.200000,420.900000C472.200000,500,408.100000,564.100000,329,564.100000Z" transform="matrix(0 1 -1 0 1039.46003966999956 92.41000305499921)" fill="rgb(253,188,190)" stroke="none" stroke-width="1"/><path id="eq20bf26eswj30" d="M425.800000,531.100000C425.100000,531.100000,424.300000,530.900000,423.600000,530.600000C372,506.100000,323.500000,507.400000,291.800000,512.700000C257.400000,518.500000,234.900000,530.400000,234.700000,530.500000C232.200000,531.800000,229,530.900000,227.700000,528.400000C226.400000,525.900000,227.300000,522.700000,229.800000,521.400000C230.800000,520.900000,253.700000,508.800000,289.700000,502.600000C310.800000,499,332.100000,498.200000,352.800000,500.300000C378.800000,502.900000,404.100000,509.900000,428,521.300000C430.600000,522.500000,431.700000,525.600000,430.500000,528.200000C429.600000,530,427.700000,531.100000,425.800000,531.100000Z" transform="matrix(1 0 0 1 286.30003967499960 0.00000305000032)" opacity="0" fill="rgb(173,25,14)" stroke="none" stroke-width="1"/><path id="eq20bf26eswj31" d="M330,342.200000C316.600000,342.200000,303.100000,341,289.600000,338.700000C253.600000,332.500000,230.700000,320.400000,229.700000,319.900000C227.200000,318.600000,226.200000,315.400000,227.600000,312.900000C228.900000,310.400000,232.100000,309.400000,234.600000,310.800000L234.600000,310.800000C234.800000,310.900000,257.300000,322.700000,291.700000,328.600000C323.300000,333.900000,371.900000,335.200000,423.500000,310.700000C426.100000,309.500000,429.200000,310.600000,430.400000,313.200000C431.600000,315.800000,430.500000,318.900000,427.900000,320.100000C404,331.500000,378.700000,338.500000,352.700000,341.100000C345.200000,341.800000,337.600000,342.200000,330,342.200000Z" transform="matrix(1 0 0 1 286.30003967499960 0.00000305000032)" opacity="0" fill="rgb(173,25,14)" stroke="none" stroke-width="1"/><path id="eq20bf26eswj32" d="M278.300000,385.100000C280.800000,361.400000,285.800000,339.800000,292.900000,322.100000C302.800000,297.600000,315.900000,283.500000,328.900000,283.500000C341.900000,283.500000,355,297.600000,364.900000,322.100000C372,339.800000,377,361.500000,379.500000,385.100000L390,385.100000C387.400000,360,382.100000,337,374.500000,318.200000C362.800000,289.100000,346.600000,273.100000,328.900000,273.100000C311.200000,273.100000,295,289.100000,283.300000,318.200000C275.700000,337,270.400000,360,267.800000,385.100000L278.300000,385.100000Z" transform="matrix(1 0 0 1 286.30003967499960 0.00000305000032)" opacity="0" fill="rgb(173,25,14)" stroke="none" stroke-width="1"/><path id="eq20bf26eswj33" d="M379.800000,455.800000C377.300000,480,372.300000,502.200000,365,520.300000C355.100000,544.800000,342,558.900000,329,558.900000C316,558.900000,302.900000,544.800000,293,520.300000C285.700000,502.200000,280.700000,480,278.200000,455.800000L267.800000,455.800000C270.300000,481.400000,275.700000,505,283.400000,524.200000C295.100000,553.300000,311.300000,569.300000,329,569.300000C346.700000,569.300000,362.900000,553.300000,374.600000,524.200000C382.400000,505,387.700000,481.400000,390.200000,455.800000L379.800000,455.800000Z" transform="matrix(1 0 0 1 286.30003967499960 0.00000305000032)" opacity="0" fill="rgb(173,25,14)" stroke="none" stroke-width="1"/><path id="eq20bf26eswj34" d="M223.800000,426.400000L188,426.400000C185.100000,426.400000,182.800000,424.100000,182.800000,421.200000C182.800000,418.300000,185.100000,416,188,416L223.900000,416C226.800000,416,229.100000,418.300000,229.100000,421.200000C229,424,226.700000,426.400000,223.800000,426.400000Z" transform="matrix(1 0 0 1 286.30003967499960 0.00000305000032)" opacity="0" fill="rgb(253,188,190)" stroke="none" stroke-width="1"/><path id="eq20bf26eswj35" d="M469.900000,426.400000L434,426.400000C431.100000,426.400000,428.800000,424.100000,428.800000,421.200000C428.800000,418.300000,431.100000,416,434,416L469.900000,416C472.800000,416,475.100000,418.300000,475.100000,421.200000C475.100000,424,472.800000,426.400000,469.900000,426.400000Z" transform="matrix(1 0 0 1 286.30003967499960 0.00000305000032)" opacity="0" fill="rgb(253,188,190)" stroke="none" stroke-width="1"/><path id="eq20bf26eswj36" d="M329,569.300000C289.400000,569.300000,252.100000,553.900000,224.100000,525.800000C196.100000,497.700000,180.600000,460.500000,180.600000,420.900000C180.600000,381.300000,196,344,224.100000,316C252.200000,288,289.400000,272.500000,329,272.500000C368.600000,272.500000,405.900000,287.900000,433.900000,316C461.900000,344,477.400000,381.300000,477.400000,420.900000C477.400000,460.500000,462,497.800000,433.900000,525.800000C405.900000,553.900000,368.600000,569.300000,329,569.300000ZM329,282.900000C252.900000,282.900000,191,344.800000,191,420.900000C191,497,252.900000,558.900000,329,558.900000C405.100000,558.900000,467,497,467,420.900000C467,344.800000,405.100000,282.900000,329,282.900000Z" transform="matrix(1 0 0 1 286.30003967499960 0.00000305000032)" fill="rgb(126,17,22)" stroke="none" stroke-width="1"/><path id="eq20bf26eswj37" d="M399.700000,461L258.200000,461C236.400000,461,218.600000,443.300000,218.600000,421.400000L218.600000,419.400000C218.600000,397.600000,236.300000,379.800000,258.200000,379.800000L399.700000,379.800000C421.500000,379.800000,439.300000,397.500000,439.300000,419.400000L439.300000,421.400000C439.200000,443.200000,421.500000,461,399.700000,461ZM258.200000,390.300000C242.100000,390.300000,229,403.400000,229,419.500000L229,421.500000C229,437.600000,242.100000,450.700000,258.200000,450.700000L399.700000,450.700000C415.800000,450.700000,428.900000,437.600000,428.900000,421.500000L428.900000,419.500000C428.900000,403.400000,415.800000,390.300000,399.700000,390.300000L258.200000,390.300000Z" transform="matrix(1 0 0 1 286.30003967499960 0.00000305000032)" opacity="0" fill="rgb(253,188,190)" stroke="none" stroke-width="1"/></g></g><script><![CDATA[!function(t,n){"object"==typeof exports&&"undefined"!=typeof module?module.exports=n():"function"==typeof define&&define.amd?define(n):(t=t||self).__SVGATOR_PLAYER__=n()}(this,(function(){"use strict";function t(n){return(t="function"==typeof Symbol&&"symbol"==typeof Symbol.iterator?function(t){return typeof t}:function(t){return t&&"function"==typeof Symbol&&t.constructor===Symbol&&t!==Symbol.prototype?"symbol":typeof t})(n)}function n(t,n){if(!(t instanceof n))throw new TypeError("Cannot call a class as a function")}function r(t,n){for(var r=0;r<n.length;r++){var e=n[r];e.enumerable=e.enumerable||!1,e.configurable=!0,"value"in e&&(e.writable=!0),Object.defineProperty(t,e.key,e)}}function e(t,n,e){return n&&r(t.prototype,n),e&&r(t,e),t}var i=1e-5,u=Math.abs;function o(t){return t}function a(t,n,r){var e=1-r;return 3*r*e*(t*e+n*r)+r*r*r}function l(){var t=arguments.length>0&&void 0!==arguments[0]?arguments[0]:0,n=arguments.length>1&&void 0!==arguments[1]?arguments[1]:0,r=arguments.length>2&&void 0!==arguments[2]?arguments[2]:1,e=arguments.length>3&&void 0!==arguments[3]?arguments[3]:1;return t<0||t>1||r<0||r>1?null:u(t-n)<=i&&u(r-e)<=i?o:function(o){if(o<=0)return t>0?o*n/t:0===n&&r>0?o*e/r:0;if(o>=1)return r<1?1+(o-1)*(e-1)/(r-1):1===r&&t<1?1+(o-1)*(n-1)/(t-1):1;for(var l,f=0,s=1;f<s;){var c=a(t,r,l=(f+s)/2);if(u(o-c)<i)break;c<o?f=l:s=l}return a(n,e,l)}}function f(){return 1}function s(t){return 1===t?1:0}function c(){var t=arguments.length>0&&void 0!==arguments[0]?arguments[0]:1,n=arguments.length>1&&void 0!==arguments[1]?arguments[1]:0;if(1===t){if(0===n)return s;if(1===n)return f}var r=1/t;return function(t){return t>=1?1:(t+=n*r)-t%r}}function v(t){var n=arguments.length>1&&void 0!==arguments[1]?arguments[1]:2;if(Number.isInteger(t))return t;var r=Math.pow(10,n);return Math.round(t*r)/r}var h=Math.PI/180;function y(t,n,r){return t>=.5?r:n}function d(t,n,r){return 0===t||n===r?n:t*(r-n)+n}function g(t,n,r){var e=d(t,n,r);return e<=0?0:e}function m(t,n,r){return 0===t?n:1===t?r:{x:d(t,n.x,r.x),y:d(t,n.y,r.y)}}function p(t,n,r){return 0===t?n:1===t?r:{x:g(t,n.x,r.x),y:g(t,n.y,r.y)}}function b(t,n,r){var e=function(t,n,r){return Math.round(d(t,n,r))}(t,n,r);return e<=0?0:e>=255?255:e}function w(t,n,r){return 0===t?n:1===t?r:{r:b(t,n.r,r.r),g:b(t,n.g,r.g),b:b(t,n.b,r.b),a:d(t,null==n.a?1:n.a,null==r.a?1:r.a)}}function A(t,n,r){if(0===t)return n;if(1===t)return r;var e=n.length;if(e!==r.length)return y(t,n,r);for(var i=[],u=0;u<e;u++)i.push(w(t,n[u],r[u]));return i}function x(t,n,r){var e=n.length;if(e!==r.length)return y(t,n,r);for(var i=new Array(e),u=0;u<e;u++)i[u]=d(t,n[u],r[u]);return i}function k(t,n){for(var r=[],e=0;e<t;e++)r.push(n);return r}function S(t,n){if(--n<=0)return t;var r=(t=Object.assign([],t)).length;do{for(var e=0;e<r;e++)t.push(t[e])}while(--n>0);return t}var _=6,M=/\.0+$/g;function I(t){return Number.isInteger(t)?t+"":t.toFixed(_).replace(M,"")}function E(t){var n=arguments.length>1&&void 0!==arguments[1]?arguments[1]:" ";return t&&t.length?t.map(I).join(n):""}function F(t){return I(t.x)+","+I(t.y)}function B(t){return t?null==t.a||t.a>=1?"rgb("+t.r+","+t.g+","+t.b+")":"rgba("+t.r+","+t.g+","+t.b+","+t.a+")":"transparent"}var j={f:null,i:p,u:function(t,n){return function(r){var e=n(r);t.setAttribute("rx",I(e.x)),t.setAttribute("ry",I(e.y))}}},q={f:null,i:function(t,n,r){return 0===t?n:1===t?r:{width:g(t,n.width,r.width),height:g(t,n.height,r.height)}},u:function(t,n){return function(r){var e=n(r);t.setAttribute("width",I(e.width)),t.setAttribute("height",I(e.height))}}},P=Math.sin,O=Math.cos,z=Math.acos,L=Math.asin,C=Math.tan,R=Math.atan2,T=Math.PI/180,V=180/Math.PI,D=Math.sqrt,N=function(){function t(){var r=arguments.length>0&&void 0!==arguments[0]?arguments[0]:1,e=arguments.length>1&&void 0!==arguments[1]?arguments[1]:0,i=arguments.length>2&&void 0!==arguments[2]?arguments[2]:0,u=arguments.length>3&&void 0!==arguments[3]?arguments[3]:1,o=arguments.length>4&&void 0!==arguments[4]?arguments[4]:0,a=arguments.length>5&&void 0!==arguments[5]?arguments[5]:0;n(this,t),this.m=[r,e,i,u,o,a],this.i=null,this.w=null,this.s=null}return e(t,[{key:"point",value:function(t,n){var r=this.m;return{x:r[0]*t+r[2]*n+r[4],y:r[1]*t+r[3]*n+r[5]}}},{key:"translateSelf",value:function(){var t=arguments.length>0&&void 0!==arguments[0]?arguments[0]:0,n=arguments.length>1&&void 0!==arguments[1]?arguments[1]:0;if(!t&&!n)return this;var r=this.m;return r[4]+=r[0]*t+r[2]*n,r[5]+=r[1]*t+r[3]*n,this.w=this.s=this.i=null,this}},{key:"rotateSelf",value:function(){var t=arguments.length>0&&void 0!==arguments[0]?arguments[0]:0;if(t%=360){var n=P(t*=T),r=O(t),e=this.m,i=e[0],u=e[1];e[0]=i*r+e[2]*n,e[1]=u*r+e[3]*n,e[2]=e[2]*r-i*n,e[3]=e[3]*r-u*n,this.w=this.s=this.i=null}return this}},{key:"scaleSelf",value:function(){var t=arguments.length>0&&void 0!==arguments[0]?arguments[0]:1,n=arguments.length>1&&void 0!==arguments[1]?arguments[1]:1;if(1!==t||1!==n){var r=this.m;r[0]*=t,r[1]*=t,r[2]*=n,r[3]*=n,this.w=this.s=this.i=null}return this}},{key:"skewSelf",value:function(t,n){if(n%=360,(t%=360)||n){var r=this.m,e=r[0],i=r[1],u=r[2],o=r[3];t&&(t=C(t*T),r[2]+=e*t,r[3]+=i*t),n&&(n=C(n*T),r[0]+=u*n,r[1]+=o*n),this.w=this.s=this.i=null}return this}},{key:"resetSelf",value:function(){var t=arguments.length>0&&void 0!==arguments[0]?arguments[0]:1,n=arguments.length>1&&void 0!==arguments[1]?arguments[1]:0,r=arguments.length>2&&void 0!==arguments[2]?arguments[2]:0,e=arguments.length>3&&void 0!==arguments[3]?arguments[3]:1,i=arguments.length>4&&void 0!==arguments[4]?arguments[4]:0,u=arguments.length>5&&void 0!==arguments[5]?arguments[5]:0,o=this.m;return o[0]=t,o[1]=n,o[2]=r,o[3]=e,o[4]=i,o[5]=u,this.w=this.s=this.i=null,this}},{key:"recomposeSelf",value:function(){var t=arguments.length>0&&void 0!==arguments[0]?arguments[0]:null,n=arguments.length>1&&void 0!==arguments[1]?arguments[1]:null,r=arguments.length>2&&void 0!==arguments[2]?arguments[2]:null,e=arguments.length>3&&void 0!==arguments[3]?arguments[3]:null,i=arguments.length>4&&void 0!==arguments[4]?arguments[4]:null;return this.isIdentity||this.resetSelf(),t&&(t.x||t.y)&&this.translateSelf(t.x,t.y),n&&this.rotateSelf(n),r&&(r.x&&this.skewSelf(r.x,0),r.y&&this.skewSelf(0,r.y)),!e||1===e.x&&1===e.y||this.scaleSelf(e.x,e.y),i&&(i.x||i.y)&&this.translateSelf(i.x,i.y),this}},{key:"decompose",value:function(){var t=arguments.length>0&&void 0!==arguments[0]?arguments[0]:0,n=arguments.length>1&&void 0!==arguments[1]?arguments[1]:0,r=this.m,e=r[0]*r[0]+r[1]*r[1],i=[[r[0],r[1]],[r[2],r[3]]],u=D(e);if(0===u)return{origin:{x:r[4],y:r[5]},translate:{x:t,y:n},scale:{x:0,y:0},skew:{x:0,y:0},rotate:0};i[0][0]/=u,i[0][1]/=u;var o=r[0]*r[3]-r[1]*r[2]<0;o&&(u=-u);var a=i[0][0]*i[1][0]+i[0][1]*i[1][1];i[1][0]-=i[0][0]*a,i[1][1]-=i[0][1]*a;var l=D(i[1][0]*i[1][0]+i[1][1]*i[1][1]);if(0===l)return{origin:{x:r[4],y:r[5]},translate:{x:t,y:n},scale:{x:u,y:0},skew:{x:0,y:0},rotate:0};i[1][0]/=l,i[1][1]/=l,a/=l;var f=0;return i[1][1]<0?(f=z(i[1][1])*V,i[0][1]<0&&(f=360-f)):f=L(i[0][1])*V,o&&(f=-f),a=R(a,D(i[0][0]*i[0][0]+i[0][1]*i[0][1]))*V,{origin:{x:r[4],y:r[5]},translate:{x:t,y:n},scale:{x:u,y:l},skew:{x:a,y:0},rotate:f}}},{key:"toString",value:function(){return null===this.s&&(this.s="matrix("+this.m.map($).join(" ")+")"),this.s}},{key:"determinant",get:function(){var t=this.m;return t[0]*t[3]-t[1]*t[2]}},{key:"isIdentity",get:function(){if(null===this.i){var t=this.m;this.i=1===t[0]&&0===t[1]&&0===t[2]&&1===t[3]&&0===t[4]&&0===t[5]}return this.i}}]),t}(),G=/\.0+$/;function $(t){return Number.isInteger(t)?t:t.toFixed(14).replace(G,"")}Object.freeze({M:2,L:2,Z:0,H:1,V:1,C:6,Q:4,T:2,S:4,A:7});function H(t,n,r){return t+(n-t)*r}function Q(t,n,r){var e=arguments.length>3&&void 0!==arguments[3]&&arguments[3],i={x:H(t.x,n.x,r),y:H(t.y,n.y,r)};return e&&(i.a=function(t,n){return Math.atan2(n.y-t.y,n.x-t.x)}(t,n)),i}function U(t,n,r,e){var i=1-e;return i*i*t+2*i*e*n+e*e*r}function Y(t,n,r,e){return 2*(1-e)*(n-t)+2*e*(r-n)}function Z(t,n,r,e){var i=arguments.length>4&&void 0!==arguments[4]&&arguments[4],u={x:U(t.x,n.x,r.x,e),y:U(t.y,n.y,r.y,e)};return i&&(u.a=function(t,n,r,e){return Math.atan2(Y(t.y,n.y,r.y,e),Y(t.x,n.x,r.x,e))}(t,n,r,e)),u}function J(t,n,r,e,i){var u=i*i;return i*u*(e-t+3*(n-r))+3*u*(t+r-2*n)+3*i*(n-t)+t}function K(t,n,r,e,i){var u=1-i;return 3*(u*u*(n-t)+2*u*i*(r-n)+i*i*(e-r))}function W(t,n,r,e,i){var u=arguments.length>5&&void 0!==arguments[5]&&arguments[5],o={x:J(t.x,n.x,r.x,e.x,i),y:J(t.y,n.y,r.y,e.y,i)};return u&&(o.a=function(t,n,r,e,i){return Math.atan2(K(t.y,n.y,r.y,e.y,i),K(t.x,n.x,r.x,e.x,i))}(t,n,r,e,i)),o}function X(t,n,r){var e,i=arguments.length>3&&void 0!==arguments[3]&&arguments[3];if(nt(n)){if(null!=(e=r).start&&!nt(e))return Z(n,r.start,r,t,i)}else if(nt(r)){if(n.end)return Z(n,n.end,r,t,i)}else{if(n.end)return r.start?W(n,n.end,r.start,r,t,i):Z(n,n.end,r,t,i);if(r.start)return Z(n,r.start,r,t,i)}return Q(n,r,t,i)}function tt(t,n,r){var e=X(t,n,r,!0);return e.a=function(t){return arguments.length>1&&void 0!==arguments[1]&&arguments[1]?t+Math.PI:t}(e.a)/h,e}function nt(t){return!t.type||"corner"===t.type}var rt=new N;var et={f:function(t){return t?t.join(" "):""},i:function(n,r,e){if(0===n)return r;if(1===n)return e;var i=r.length;if(i!==e.length)return y(n,r,e);for(var u,o=new Array(i),a=0;a<i;a++){if((u=t(r[a]))!==t(e[a]))return y(n,r,e);if("number"===u)o[a]=d(n,r[a],e[a]);else{if(r[a]!==e[a])return y(n,r,e);o[a]=r[a]}}return o}},it={f:null,i:x,u:function(t,n){return function(r){var e=n(r);t.setAttribute("x1",I(e[0])),t.setAttribute("y1",I(e[1])),t.setAttribute("x2",I(e[2])),t.setAttribute("y2",I(e[3]))}}},ut={f:I,i:d},ot={f:I,i:function(t,n,r){var e=d(t,n,r);return e<=0?0:e>=1?1:e}},at={f:E,i:function(t,n,r){var e,i,u,o=n.length,a=r.length;if(o!==a)if(0===o)n=k(o=a,0);else if(0===a)a=o,r=k(o,0);else{var l=(u=(e=o)*(i=a)/function(t,n){for(var r;n;)r=n,n=t%n,t=r;return t||1}(e,i))<0?-u:u;n=S(n,Math.floor(l/o)),r=S(r,Math.floor(l/a)),o=a=l}for(var f=[],s=0;s<o;s++)f.push(v(g(t,n[s],r[s]),6));return f}};function lt(t,n,r,e,i,u,o,a){return n=function(t,n,r){for(var e,i,u,o=t.length-1,a={},l=0;l<=o;l++)(e=t[l]).e&&(e.e=n(e.e)),e.v&&"g"===(i=e.v).t&&i.r&&(u=r.getElementById(i.r))&&(a[i.r]=u.querySelectorAll("stop"));return a}(t,e,a),function(e){var i,u=r(e,t,ft);return u?"c"===u.t?B(u.v):"g"===u.t?(n[u.r]&&function(t,n){for(var r=0,e=t.length;r<e;r++)t[r].setAttribute("stop-color",B(n[r]))}(n[u.r],u.v),(i=u.r)?"url(#"+i+")":"none"):"none":"none"}}function ft(t,n,r){if(0===t)return n;if(1===t)return r;if(n&&r){var e=n.t;if(e===r.t)switch(n.t){case"c":return{t:e,v:w(t,n.v,r.v)};case"g":if(n.r===r.r)return{t:e,v:A(t,n.v,r.v),r:n.r}}}return y(t,n,r)}var st={blur:p,brightness:g,contrast:g,"drop-shadow":function(t,n,r){return 0===t?n:1===t?r:{blur:p(t,n.blur,r.blur),offset:m(t,n.offset,r.offset),color:w(t,n.color,r.color)}},grayscale:g,"hue-rotate":d,invert:g,opacity:g,saturate:g,sepia:g};function ct(t,n,r){if(0===t)return n;if(1===t)return r;var e=n.length;if(e!==r.length)return y(t,n,r);for(var i,u=[],o=0;o<e;o++){if(n[o].type!==r[o].type)return n;if(!(i=st[n[o].type]))return y(t,n,r);u.push({type:n.type,value:i(t,n[o].value,r[o].value)})}return u}var vt={blur:function(t){return t?function(n){t.setAttribute("stdDeviation",F(n))}:null},brightness:function(t,n,r){return(t=yt(r,n))?function(n){n=I(n),t.map((function(t){return t.setAttribute("slope",n)}))}:null},contrast:function(t,n,r){return(t=yt(r,n))?function(n){var r=I((1-n)/2);n=I(n),t.map((function(t){t.setAttribute("slope",n),t.setAttribute("intercept",r)}))}:null},"drop-shadow":function(t,n,r){var e=r.getElementById(n+"-blur");if(!e)return null;var i=r.getElementById(n+"-offset");if(!i)return null;var u=r.getElementById(n+"-flood");return u?function(t){e.setAttribute("stdDeviation",F(t.blur)),i.setAttribute("dx",I(t.offset.x)),i.setAttribute("dy",I(t.offset.y)),u.setAttribute("flood-color",B(t.color))}:null},grayscale:function(t){return t?function(n){t.setAttribute("values",E(function(t){return[.2126+.7874*(t=1-t),.7152-.7152*t,.0722-.0722*t,0,0,.2126-.2126*t,.7152+.2848*t,.0722-.0722*t,0,0,.2126-.2126*t,.7152-.7152*t,.0722+.9278*t,0,0,0,0,0,1,0]}(n)))}:null},"hue-rotate":function(t){return t?function(n){return t.setAttribute("values",I(n))}:null},invert:function(t,n,r){return(t=yt(r,n))?function(n){n=I(n)+" "+I(1-n),t.map((function(t){return t.setAttribute("tableValues",n)}))}:null},opacity:function(t,n,r){return(t=r.getElementById(n+"-A"))?function(n){return t.setAttribute("tableValues","0 "+I(n))}:null},saturate:function(t){return t?function(n){return t.setAttribute("values",I(n))}:null},sepia:function(t){return t?function(n){return t.setAttribute("values",E(function(t){return[.393+.607*(t=1-t),.769-.769*t,.189-.189*t,0,0,.349-.349*t,.686+.314*t,.168-.168*t,0,0,.272-.272*t,.534-.534*t,.131+.869*t,0,0,0,0,0,1,0]}(n)))}:null}};var ht=["R","G","B"];function yt(t,n){var r=ht.map((function(r){return t.getElementById(n+"-"+r)||null}));return-1!==r.indexOf(null)?null:r}var dt={fill:lt,"fill-opacity":ot,stroke:lt,"stroke-opacity":ot,"stroke-width":ut,"stroke-dashoffset":{f:I,i:d},"stroke-dasharray":at,opacity:ot,transform:function(n,r,e,i){if(!(n=function(n,r){if(!n||"object"!==t(n))return null;var e=!1;for(var i in n)n.hasOwnProperty(i)&&(n[i]&&n[i].length?(n[i].forEach((function(t){t.e&&(t.e=r(t.e))})),e=!0):delete n[i]);return e?n:null}(n,i)))return null;var u=function(t,i,u){var o=arguments.length>3&&void 0!==arguments[3]?arguments[3]:null;return n[t]?e(i,n[t],u):r&&r[t]?r[t]:o};return r&&r.a&&n.o?function(t){var r=e(t,n.o,tt);return rt.recomposeSelf(r,u("r",t,d,0)+r.a,u("k",t,m),u("s",t,m),u("t",t,m)).toString()}:function(t){return rt.recomposeSelf(u("o",t,X,null),u("r",t,d,0),u("k",t,m),u("s",t,m),u("t",t,m)).toString()}},"#filter":function(t,n,r,e,i,u,o,a){if(!n.items||!t||!t.length)return null;var l=function(t,n){var r=(t=t.map((function(t){return t&&vt[t[0]]?(n.getElementById(t[1]),vt[t[0]](n.getElementById(t[1]),t[1],n)):null}))).length;return function(n){for(var e=0;e<r;e++)t[e]&&t[e](n[e].value)}}(n.items,a);return l?(t=function(t,n){return t.map((function(t){return t.e=n(t.e),t}))}(t,e),function(n){l(r(n,t,ct))}):null},"#line":it,points:{f:E,i:x},d:et,r:ut,"#size":q,"#radius":j,_:function(t,n){if(Array.isArray(t))for(var r=0;r<t.length;r++)this[t[r]]=n;else this[t]=n}},gt=function(){function t(r){n(this,t),this.list=r,this.length=r.length}return e(t,[{key:"setAttribute",value:function(t,n){for(var r=this.list,e=0;e<this.length;e++)r[e].setAttribute(t,n)}},{key:"removeAttribute",value:function(t){for(var n=this.list,r=0;r<this.length;r++)n[r].removeAttribute(t)}},{key:"style",value:function(t,n){for(var r=this.list,e=0;e<this.length;e++)r[e].style[t]=n}}]),t}(),mt=/-./g,pt=function(t,n){return n.toUpperCase()};function bt(t){return"function"==typeof t?t:y}function wt(t){return t?"function"==typeof t?t:Array.isArray(t)?function(t){var n=arguments.length>1&&void 0!==arguments[1]?arguments[1]:o;if(!Array.isArray(t))return n;switch(t.length){case 1:return c(t[0])||n;case 2:return c(t[0],t[1])||n;case 4:return l(t[0],t[1],t[2],t[3])||n}return n}(t,null):function(t,n){var r=arguments.length>2&&void 0!==arguments[2]?arguments[2]:o;switch(t){case"linear":return o;case"steps":return c(n.steps||1,n.jump||0)||r;case"bezier":case"cubic-bezier":return l(n.x1||0,n.y1||0,n.x2||0,n.y2||0)||r}return r}(t.type,t.value,null):null}function At(t,n,r){var e=arguments.length>3&&void 0!==arguments[3]&&arguments[3],i=n.length-1;if(t<=n[0].t)return e?[0,0,n[0].v]:n[0].v;if(t>=n[i].t)return e?[i,1,n[i].v]:n[i].v;var u,o=n[0],a=null;for(u=1;u<=i;u++){if(!(t>n[u].t)){a=n[u];break}o=n[u]}return null==a?e?[i,1,n[i].v]:n[i].v:o.t===a.t?e?[u,1,a.v]:a.v:(t=(t-o.t)/(a.t-o.t),o.e&&(t=o.e(t)),e?[u,t,r(t,o.v,a.v)]:r(t,o.v,a.v))}function xt(t,n){var r=arguments.length>2&&void 0!==arguments[2]?arguments[2]:null;return t&&t.length?"function"!=typeof n?null:("function"!=typeof r&&(r=null),function(e){var i=At(e,t,n);return null!=i&&r&&(i=r(i)),i}):null}function kt(t,n){return t.t-n.t}function St(n,r,e,i,u){var o,a="@"===e[0],l="#"===e[0],f=dt[e],s=y;switch(a?(o=e.substr(1),e=o.replace(mt,pt)):l&&(e=e.substr(1)),t(f)){case"function":if(s=f(i,u,At,wt,e,a,r,n),l)return s;break;case"string":s=xt(i,bt(f));break;case"object":if((s=xt(i,bt(f.i),f.f))&&"function"==typeof f.u)return f.u(r,s,e,a,n)}return s?function(t,n,r){if(arguments.length>3&&void 0!==arguments[3]&&arguments[3])return t instanceof gt?function(e){return t.style(n,r(e))}:function(e){return t.style[n]=r(e)};if(Array.isArray(n)){var e=n.length;return function(i){var u=r(i);if(null==u)for(var o=0;o<e;o++)t[o].removeAttribute(n);else for(var a=0;a<e;a++)t[a].setAttribute(n,u)}}return function(e){var i=r(e);null==i?t.removeAttribute(n):t.setAttribute(n,i)}}(r,e,s,a):null}function _t(n,r,e,i){if(!i||"object"!==t(i))return null;var u=null,o=null;return Array.isArray(i)?o=function(t){if(!t||!t.length)return null;for(var n=0;n<t.length;n++)t[n].e&&(t[n].e=wt(t[n].e));return t.sort(kt)}(i):(o=i.keys,u=i.data||null),o?St(n,r,e,o,u):null}function Mt(t,n,r){if(!r)return null;var e=[];for(var i in r)if(r.hasOwnProperty(i)){var u=_t(t,n,i,r[i]);u&&e.push(u)}return e.length?e:null}function It(t,n){if(!n.duration||n.duration<0)return null;var r=function(t,n){if(!n)return null;var r=[];if(Array.isArray(n))for(var e=n.length,i=0;i<e;i++){var u=n[i];if(2===u.length){var o=null;if("string"==typeof u[0])o=t.getElementById(u[0]);else if(Array.isArray(u[0])){o=[];for(var a=0;a<u[0].length;a++)if("string"==typeof u[0][a]){var l=t.getElementById(u[0][a]);l&&o.push(l)}o=o.length?1===o.length?o[0]:new gt(o):null}if(o){var f=Mt(t,o,u[1]);f&&(r=r.concat(f))}}}else for(var s in n)if(n.hasOwnProperty(s)){var c=t.getElementById(s);if(c){var v=Mt(t,c,n[s]);v&&(r=r.concat(v))}}return r.length?r:null}(t,n.elements);return r?function(t,n){var r=arguments.length>2&&void 0!==arguments[2]?arguments[2]:1/0,e=arguments.length>3&&void 0!==arguments[3]?arguments[3]:1,i=arguments.length>4&&void 0!==arguments[4]&&arguments[4],u=arguments.length>5&&void 0!==arguments[5]?arguments[5]:1,o=t.length,a=e>0?n:0;i&&r%2==0&&(a=n-a);var l=null;return function(f,s){var c=f%n,v=1+(f-c)/n;s*=e,i&&v%2==0&&(s=-s);var h=!1;if(v>r)c=a,h=!0,-1===u&&(c=e>0?0:n);else if(s<0&&(c=n-c),c===l)return!1;l=c;for(var y=0;y<o;y++)t[y](c);return h}}(r,n.duration,n.iterations||1/0,n.direction||1,!!n.alternate,n.fill||1):null}var Et=function(){function t(r){var e=arguments.length>1&&void 0!==arguments[1]?arguments[1]:{};n(this,t),this._id=0,this._running=!1,this._animations=r,this.direction=e.direction||1,this.speed=e.speed||1,this.fps=e.fps||100,this.offset=e.offset||0}return e(t,[{key:"_start",value:function(){var t=this,n=arguments.length>0&&void 0!==arguments[0]?arguments[0]:0,r=-1/0,e=null,i={},u=function u(o){t._running=!0,null==e&&(e=o);var a=Math.round((o-e+n)*t.speed),l=t.fps?1e3/t.fps:0;if(a>r+l){t.offset=a,r=a;for(var f=t._animations,s=f.length,c=0,v=0;v<s;v++)i[v]?c++:(i[v]=f[v](a,t.direction),i[v]&&c++);if(c===s)return void t._stop()}t._id=window.requestAnimationFrame(u)};this._id=window.requestAnimationFrame(u)}},{key:"_stop",value:function(){this._id&&window.cancelAnimationFrame(this._id),this._running=!1}},{key:"play",value:function(){this._running||this._start(this.offset)}},{key:"stop",value:function(){this._stop(),this.offset=0;var t=this.direction,n=this._animations;requestAnimationFrame((function(){for(var r=0;r<n.length;r++)n[r](0,t)}))}},{key:"restart",value:function(){this._stop(),this.offset=0,this._start()}},{key:"pause",value:function(){this._stop()}},{key:"reverse",value:function(){this.direction=-this.direction}}],[{key:"build",value:function(n){if(!(n=function(t){if(!t||!t.root||!Array.isArray(t.animations))return null;var n=window.document.getElementById(t.root);if(!n)return null;var r=t.animations.map((function(t){return It(n,t)})).filter((function(t){return!!t}));return r.length?{element:n,animations:r,options:t.options||void 0}:null}(n)))return null;var r=n.element,e=n.options||{},i=new t(n.animations,n.options);return function(t,n,r){var e=arguments.length>3&&void 0!==arguments[3]?arguments[3]:null;if("click"===r){return void n.addEventListener("click",(function r(){n.removeEventListener("click",r),t.play()}))}if("hover"===r)return n.addEventListener("mouseenter",(function(){return t.play()})),void n.addEventListener("mouseleave","freeze"===e?function(){return t.pause()}:function(){return t.stop()});t.play()}(i,r,e.start,e.hover),i}}]),t}();return function(){for(var t=0,n=["ms","moz","webkit","o"],r=0;r<n.length&&!window.requestAnimationFrame;++r)window.requestAnimationFrame=window[n[r]+"RequestAnimationFrame"],window.cancelAnimationFrame=window[n[r]+"CancelAnimationFrame"]||window[n[r]+"CancelRequestAnimationFrame"];window.requestAnimationFrame||(window.requestAnimationFrame=function(n){var r=Date.now(),e=Math.max(0,16-(r-t)),i=window.setTimeout((function(){n(r+e)}),e);return t=r+e,i},window.cancelAnimationFrame=window.clearTimeout)}(),Et}));
__SVGATOR_PLAYER__.build({"root":"eq20bf26eswj1","animations":[{"duration":10000,"direction":1,"iterations":1,"fill":1,"alternate":false,"elements":{"eq20bf26eswj5":{"opacity":[{"t":8000,"v":0},{"t":9000,"v":1}]},"eq20bf26eswj17":{"transform":{"keys":{"o":[{"t":7000,"v":{"x":286.3000396749996,"y":0.0000030500003163069778,"type":"corner"}},{"t":8500,"v":{"x":0,"y":0,"type":"corner"}}]}},"opacity":[{"t":3500,"v":0},{"t":5500,"v":1}]},"eq20bf26eswj27":{"transform":{"keys":{"o":[{"t":7000,"v":{"x":286.3000396749996,"y":0.0000030500003163069778,"type":"corner"}},{"t":8500,"v":{"x":0,"y":0,"type":"corner"}}]}},"opacity":[{"t":2100,"v":0},{"t":5000,"v":1}]},"eq20bf26eswj28":{"transform":{"keys":{"o":[{"t":7000,"v":{"x":286.3000396749996,"y":0.0000030500003163069778,"type":"corner"}},{"t":8500,"v":{"x":0,"y":0,"type":"corner"}}]}},"opacity":[{"t":2100,"v":0},{"t":5000,"v":1}]},"eq20bf26eswj29":{"transform":{"data":{"t":{"x":-328.3499999950005,"y":-421.2999999999994}},"keys":{"o":[{"t":0,"v":{"x":618.1600396700002,"y":420.7600030499997,"type":"corner"}},{"t":7000,"v":{"x":618.1600396700002,"y":420.7600030499997,"type":"corner"}},{"t":8500,"v":{"x":332.5000396700002,"y":420.40000304999967,"type":"corner"}}],"r":[{"t":0,"v":810},{"t":8000,"v":0}]}}},"eq20bf26eswj30":{"transform":{"keys":{"o":[{"t":7000,"v":{"x":286.3000396749996,"y":0.0000030500003163069778,"type":"corner"}},{"t":8500,"v":{"x":0,"y":0,"type":"corner"}}]}},"opacity":[{"t":1100,"v":0},{"t":4200,"v":1}]},"eq20bf26eswj31":{"transform":{"keys":{"o":[{"t":7000,"v":{"x":286.3000396749996,"y":0.0000030500003163069778,"type":"corner"}},{"t":8500,"v":{"x":0,"y":0,"type":"corner"}}]}},"opacity":[{"t":1100,"v":0},{"t":4200,"v":1}]},"eq20bf26eswj32":{"transform":{"keys":{"o":[{"t":7000,"v":{"x":286.3000396749996,"y":0.0000030500003163069778,"type":"corner"}},{"t":8500,"v":{"x":0,"y":0,"type":"corner"}}]}},"opacity":[{"t":2000,"v":0},{"t":4500,"v":1}]},"eq20bf26eswj33":{"transform":{"keys":{"o":[{"t":7000,"v":{"x":286.3000396749996,"y":0.0000030500003163069778,"type":"corner"}},{"t":8500,"v":{"x":0,"y":0,"type":"corner"}}]}},"opacity":[{"t":2000,"v":0},{"t":4500,"v":1}]},"eq20bf26eswj34":{"transform":{"keys":{"o":[{"t":7000,"v":{"x":286.3000396749996,"y":0.0000030500003163069778,"type":"corner"}},{"t":8500,"v":{"x":0,"y":0,"type":"corner"}}]}},"opacity":[{"t":2000,"v":0},{"t":5000,"v":1}]},"eq20bf26eswj35":{"transform":{"keys":{"o":[{"t":7000,"v":{"x":286.3000396749996,"y":0.0000030500003163069778,"type":"corner"}},{"t":8500,"v":{"x":0,"y":0,"type":"corner"}}]}},"opacity":[{"t":2000,"v":0},{"t":5000,"v":1}]},"eq20bf26eswj36":{"transform":{"keys":{"o":[{"t":7000,"v":{"x":286.3000396749996,"y":0.0000030500003163069778,"type":"corner"}},{"t":8500,"v":{"x":0,"y":0,"type":"corner"}}]}},"opacity":[{"t":4000,"v":1},{"t":8500,"v":1}]},"eq20bf26eswj37":{"transform":{"keys":{"o":[{"t":7000,"v":{"x":286.3000396749996,"y":0.0000030500003163069778,"type":"corner"}},{"t":8500,"v":{"x":0,"y":0,"type":"corner"}}]}},"opacity":[{"t":1900,"v":0},{"t":4000,"v":1}]}}}],"options":{"start":"load","hover":"restart"}})]]></script></svg>